0
SECTION
2
HEADER
9
$ACADVER
1
AC1015
9
$INSUNITS
70
4
0
ENDSEC
0
SECTION
2
ENTITIES
0
LWPOLYLINE
8
CORTE
90
1003
70
1
10
0
20
0
10
0.02
20
0
10
0.04
20
0
10
0.06
20
0
10
0.08
20
0
10
0.1
20
0
10
0.12
20
0
10
0.14
20
0
10
0.16
20
0
10
0.18
20
0
10
0.2
20
0
10
0.22
20
0
10
0.24
20
0
10
0.26
20
0
10
0.28
20
0
10
0.3
20
0
10
0.32
20
0
10
0.34
20
0
10
0.36
20
0
10
0.38
20
0
10
0.4
20
0
10
0.42
20
0
10
0.44
20
0
10
0.46
20
0
10
0.48
20
0
10
0.5
20
0
10
0.52
20
0
10
0.54
20
0
10
0.56
20
0
10
0.58
20
0
10
0.6
20
0
10
0.62
20
0
10
0.64
20
0
10
0.66
20
0
10
0.68
20
0
10
0.7000000000000001
20
0
10
0.72
20
0
10
0.74
20
0
10
0.76
20
0
10
0.78
20
0
10
0.8
20
0
10
0.8200000000000001
20
0
10
0.84
20
0
10
0.86
20
0
10
0.88
20
0
10
0.9
20
0
10
0.92
20
0
10
0.9400000000000001
20
0
10
0.96
20
0
10
0.98
20
0
10
1
20
0
10
1.02
20
0
10
1.04
20
0
10
1.06
20
0
10
1.08
20
0
10
1.1
20
0
10
1.12
20
0
10
1.1400000000000001
20
0
10
1.16
20
0
10
1.18
20
0
10
1.2
20
0
10
1.22
20
0
10
1.24
20
0
10
1.26
20
0
10
1.28
20
0
10
1.3
20
0
10
1.32
20
0
10
1.34
20
0
10
1.36
20
0
10
1.3800000000000001
20
0
10
1.4000000000000001
20
0
10
1.42
20
0
10
1.44
20
0
10
1.46
20
0
10
1.48
20
0
10
1.5
20
0
10
1.52
20
0
10
1.54
20
0
10
1.56
20
0
10
1.58
20
0
10
1.6
20
0
10
1.62
20
0
10
1.6400000000000001
20
0
10
1.6600000000000001
20
0
10
1.68
20
0
10
1.7
20
0
10
1.72
20
0
10
1.74
20
0
10
1.76
20
0
10
1.78
20
0
10
1.8
20
0
10
1.82
20
0
10
1.84
20
0
10
1.86
20
0
10
1.8800000000000001
20
0
10
1.9000000000000001
20
0
10
1.92
20
0
10
1.94
20
0
10
1.96
20
0
10
1.98
20
0
10
2
20
0
10
2.02
20
0
10
2.04
20
0
10
2.06
20
0
10
2.08
20
0
10
2.1
20
0
10
2.12
20
0
10
2.14
20
0
10
2.16
20
0
10
2.18
20
0
10
2.2
20
0
10
2.22
20
0
10
2.24
20
0
10
2.2600000000000002
20
0
10
2.2800000000000002
20
0
10
2.3000000000000003
20
0
10
2.32
20
0
10
2.34
20
0
10
2.36
20
0
10
2.38
20
0
10
2.4
20
0
10
2.42
20
0
10
2.44
20
0
10
2.46
20
0
10
2.48
20
0
10
2.5
20
0
10
2.52
20
0
10
2.54
20
0
10
2.56
20
0
10
2.58
20
0
10
2.6
20
0
10
2.62
20
0
10
2.64
20
0
10
2.66
20
0
10
2.68
20
0
10
2.7
20
0
10
2.72
20
0
10
2.74
20
0
10
2.7600000000000002
20
0
10
2.7800000000000002
20
0
10
2.8000000000000003
20
0
10
2.82
20
0
10
2.84
20
0
10
2.86
20
0
10
2.88
20
0
10
2.9
20
0
10
2.92
20
0
10
2.94
20
0
10
2.96
20
0
10
2.98
20
0
10
3
20
0
10
3.02
20
0
10
3.04
20
0
10
3.06
20
0
10
3.08
20
0
10
3.1
20
0
10
3.12
20
0
10
3.14
20
0
10
3.16
20
0
10
3.18
20
0
10
3.2
20
0
10
3.22
20
0
10
3.24
20
0
10
3.2600000000000002
20
0
10
3.2800000000000002
20
0
10
3.3000000000000003
20
0
10
3.3200000000000003
20
0
10
3.34
20
0
10
3.36
20
0
10
3.38
20
0
10
3.4
20
0
10
3.42
20
0
10
3.44
20
0
10
3.46
20
0
10
3.48
20
0
10
3.5
20
0
10
3.52
20
0
10
3.54
20
0
10
3.56
20
0
10
3.58
20
0
10
3.6
20
0
10
3.62
20
0
10
3.64
20
0
10
3.66
20
0
10
3.68
20
0
10
3.7
20
0
10
3.72
20
0
10
3.74
20
0
10
3.7600000000000002
20
0
10
3.7800000000000002
20
0
10
3.8000000000000003
20
0
10
3.8200000000000003
20
0
10
3.84
20
0
10
3.86
20
0
10
3.88
20
0
10
3.9
20
0
10
3.92
20
0
10
3.94
20
0
10
3.96
20
0
10
3.98
20
0
10
4
20
0
10
4.0200000000000005
20
0
10
4.04
20
0
10
4.0600000000000005
20
0
10
4.08
20
0
10
4.1
20
0
10
4.12
20
0
10
4.14
20
0
10
4.16
20
0
10
4.18
20
0
10
4.2
20
0
10
4.22
20
0
10
4.24
20
0
10
4.26
20
0
10
4.28
20
0
10
4.3
20
0
10
4.32
20
0
10
4.34
20
0
10
4.36
20
0
10
4.38
20
0
10
4.4
20
0
10
4.42
20
0
10
4.44
20
0
10
4.46
20
0
10
4.48
20
0
10
4.5
20
0
10
4.5200000000000005
20
0
10
4.54
20
0
10
4.5600000000000005
20
0
10
4.58
20
0
10
4.6000000000000005
20
0
10
4.62
20
0
10
4.64
20
0
10
4.66
20
0
10
4.68
20
0
10
4.7
20
0
10
4.72
20
0
10
4.74
20
0
10
4.76
20
0
10
4.78
20
0
10
4.8
20
0
10
4.82
20
0
10
4.84
20
0
10
4.86
20
0
10
4.88
20
0
10
4.9
20
0
10
4.92
20
0
10
4.94
20
0
10
4.96
20
0
10
4.98
20
0
10
5
20
0
10
5.0200000000000005
20
0
10
5.04
20
0
10
5.0600000000000005
20
0
10
5.08
20
0
10
5.1000000000000005
20
0
10
5.12
20
0
10
5.14
20
0
10
5.16
20
0
10
5.18
20
0
10
5.2
20
0
10
5.22
20
0
10
5.24
20
0
10
5.26
20
0
10
5.28
20
0
10
5.3
20
0
10
5.32
20
0
10
5.34
20
0
10
5.36
20
0
10
5.38
20
0
10
5.4
20
0
10
5.42
20
0
10
5.44
20
0
10
5.46
20
0
10
5.48
20
0
10
5.5
20
0
10
5.5200000000000005
20
0
10
5.54
20
0
10
5.5600000000000005
20
0
10
5.58
20
0
10
5.6000000000000005
20
0
10
5.62
20
0
10
5.64
20
0
10
5.66
20
0
10
5.68
20
0
10
5.7
20
0
10
5.72
20
0
10
5.74
20
0
10
5.76
20
0
10
5.78
20
0
10
5.8
20
0
10
5.82
20
0
10
5.84
20
0
10
5.86
20
0
10
5.88
20
0
10
5.9
20
0
10
5.92
20
0
10
5.94
20
0
10
5.96
20
0
10
5.98
20
0
10
6
20
0
10
6.0200000000000005
20
0
10
6.04
20
0
10
6.0600000000000005
20
0
10
6.08
20
0
10
6.1000000000000005
20
0
10
6.12
20
0
10
6.140000000000001
20
0
10
6.16
20
0
10
6.18
20
0
10
6.2
20
0
10
6.22
20
0
10
6.24
20
0
10
6.26
20
0
10
6.28
20
0
10
6.3
20
0
10
6.32
20
0
10
6.34
20
0
10
6.36
20
0
10
6.38
20
0
10
6.4
20
0
10
6.42
20
0
10
6.44
20
0
10
6.46
20
0
10
6.48
20
0
10
6.5
20
0
10
6.5200000000000005
20
0
10
6.54
20
0
10
6.5600000000000005
20
0
10
6.58
20
0
10
6.6000000000000005
20
0
10
6.62
20
0
10
6.640000000000001
20
0
10
6.66
20
0
10
6.68
20
0
10
6.7
20
0
10
6.72
20
0
10
6.74
20
0
10
6.76
20
0
10
6.78
20
0
10
6.8
20
0
10
6.82
20
0
10
6.84
20
0
10
6.86
20
0
10
6.88
20
0
10
6.9
20
0
10
6.92
20
0
10
6.94
20
0
10
6.96
20
0
10
6.98
20
0
10
7
20
0
10
7.0200000000000005
20
0
10
7.04
20
0
10
7.0600000000000005
20
0
10
7.08
20
0
10
7.1000000000000005
20
0
10
7.12
20
0
10
7.140000000000001
20
0
10
7.16
20
0
10
7.18
20
0
10
7.2
20
0
10
7.22
20
0
10
7.24
20
0
10
7.26
20
0
10
7.28
20
0
10
7.3
20
0
10
7.32
20
0
10
7.34
20
0
10
7.36
20
0
10
7.38
20
0
10
7.4
20
0
10
7.42
20
0
10
7.44
20
0
10
7.46
20
0
10
7.48
20
0
10
7.5
20
0
10
7.5200000000000005
20
0
10
7.54
20
0
10
7.5600000000000005
20
0
10
7.58
20
0
10
7.6000000000000005
20
0
10
7.62
20
0
10
7.640000000000001
20
0
10
7.66
20
0
10
7.68
20
0
10
7.7
20
0
10
7.72
20
0
10
7.74
20
0
10
7.76
20
0
10
7.78
20
0
10
7.8
20
0
10
7.82
20
0
10
7.84
20
0
10
7.86
20
0
10
7.88
20
0
10
7.9
20
0
10
7.92
20
0
10
7.94
20
0
10
7.96
20
0
10
7.98
20
0
10
8
20
0
10
8.02
20
0
10
8.040000000000001
20
0
10
8.06
20
0
10
8.08
20
0
10
8.1
20
0
10
8.120000000000001
20
0
10
8.14
20
0
10
8.16
20
0
10
8.18
20
0
10
8.2
20
0
10
8.22
20
0
10
8.24
20
0
10
8.26
20
0
10
8.28
20
0
10
8.3
20
0
10
8.32
20
0
10
8.34
20
0
10
8.36
20
0
10
8.38
20
0
10
8.4
20
0
10
8.42
20
0
10
8.44
20
0
10
8.46
20
0
10
8.48
20
0
10
8.5
20
0
10
8.52
20
0
10
8.540000000000001
20
0
10
8.56
20
0
10
8.58
20
0
10
8.6
20
0
10
8.620000000000001
20
0
10
8.64
20
0
10
8.66
20
0
10
8.68
20
0
10
8.700000000000001
20
0
10
8.72
20
0
10
8.74
20
0
10
8.76
20
0
10
8.78
20
0
10
8.8
20
0
10
8.82
20
0
10
8.84
20
0
10
8.86
20
0
10
8.88
20
0
10
8.9
20
0
10
8.92
20
0
10
8.94
20
0
10
8.96
20
0
10
8.98
20
0
10
9
20
0
10
9.02
20
0
10
9.040000000000001
20
0
10
9.06
20
0
10
9.08
20
0
10
9.1
20
0
10
9.120000000000001
20
0
10
9.14
20
0
10
9.16
20
0
10
9.18
20
0
10
9.200000000000001
20
0
10
9.22
20
0
10
9.24
20
0
10
9.26
20
0
10
9.28
20
0
10
9.3
20
0
10
9.32
20
0
10
9.34
20
0
10
9.36
20
0
10
9.38
20
0
10
9.4
20
0
10
9.42
20
0
10
9.44
20
0
10
9.46
20
0
10
9.48
20
0
10
9.5
20
0
10
9.52
20
0
10
9.540000000000001
20
0
10
9.56
20
0
10
9.58
20
0
10
9.6
20
0
10
9.620000000000001
20
0
10
9.64
20
0
10
9.66
20
0
10
9.68
20
0
10
9.700000000000001
20
0
10
9.72
20
0
10
9.74
20
0
10
9.76
20
0
10
9.78
20
0
10
9.8
20
0
10
9.82
20
0
10
9.84
20
0
10
9.86
20
0
10
9.88
20
0
10
9.9
20
0
10
9.92
20
0
10
9.94
20
0
10
9.96
20
0
10
9.98
20
0
10
10
20
0
10
10.02
20
0
10
10.040000000000001
20
0
10
10.06
20
0
10
10.08
20
0
10
10.1
20
0
10
10.120000000000001
20
0
10
10.14
20
0
10
10.16
20
0
10
10.18
20
0
10
10.200000000000001
20
0
10
10.22
20
0
10
10.24
20
0
10
10.26
20
0
10
10.28
20
0
10
10.3
20
0
10
10.32
20
0
10
10.34
20
0
10
10.36
20
0
10
10.38
20
0
10
10.4
20
0
10
10.42
20
0
10
10.44
20
0
10
10.46
20
0
10
10.48
20
0
10
10.5
20
0
10
10.52
20
0
10
10.540000000000001
20
0
10
10.56
20
0
10
10.58
20
0
10
10.6
20
0
10
10.620000000000001
20
0
10
10.64
20
0
10
10.66
20
0
10
10.68
20
0
10
10.700000000000001
20
0
10
10.72
20
0
10
10.74
20
0
10
10.76
20
0
10
10.78
20
0
10
10.8
20
0
10
10.82
20
0
10
10.84
20
0
10
10.86
20
0
10
10.88
20
0
10
10.9
20
0
10
10.92
20
0
10
10.94
20
0
10
10.96
20
0
10
10.98
20
0
10
11
20
0
10
11.02
20
0
10
11.040000000000001
20
0
10
11.06
20
0
10
11.08
20
0
10
11.1
20
0
10
11.120000000000001
20
0
10
11.14
20
0
10
11.16
20
0
10
11.18
20
0
10
11.200000000000001
20
0
10
11.22
20
0
10
11.24
20
0
10
11.26
20
0
10
11.28
20
0
10
11.3
20
0
10
11.32
20
0
10
11.34
20
0
10
11.36
20
0
10
11.38
20
0
10
11.4
20
0
10
11.42
20
0
10
11.44
20
0
10
11.46
20
0
10
11.48
20
0
10
11.5
20
0
10
11.52
20
0
10
11.540000000000001
20
0
10
11.56
20
0
10
11.58
20
0
10
11.6
20
0
10
11.620000000000001
20
0
10
11.64
20
0
10
11.66
20
0
10
11.68
20
0
10
11.700000000000001
20
0
10
11.72
20
0
10
11.74
20
0
10
11.76
20
0
10
11.78
20
0
10
11.8
20
0
10
11.82
20
0
10
11.84
20
0
10
11.86
20
0
10
11.88
20
0
10
11.9
20
0
10
11.92
20
0
10
11.94
20
0
10
11.96
20
0
10
11.98
20
0
10
12
20
0
10
12.02
20
0
10
12.040000000000001
20
0
10
12.06
20
0
10
12.08
20
0
10
12.1
20
0
10
12.120000000000001
20
0
10
12.14
20
0
10
12.16
20
0
10
12.18
20
0
10
12.200000000000001
20
0
10
12.22
20
0
10
12.24
20
0
10
12.26
20
0
10
12.280000000000001
20
0
10
12.3
20
0
10
12.32
20
0
10
12.34
20
0
10
12.36
20
0
10
12.38
20
0
10
12.4
20
0
10
12.42
20
0
10
12.44
20
0
10
12.46
20
0
10
12.48
20
0
10
12.5
20
0
10
12.52
20
0
10
12.540000000000001
20
0
10
12.56
20
0
10
12.58
20
0
10
12.6
20
0
10
12.620000000000001
20
0
10
12.64
20
0
10
12.66
20
0
10
12.68
20
0
10
12.700000000000001
20
0
10
12.72
20
0
10
12.74
20
0
10
12.76
20
0
10
12.780000000000001
20
0
10
12.8
20
0
10
12.82
20
0
10
12.84
20
0
10
12.86
20
0
10
12.88
20
0
10
12.9
20
0
10
12.92
20
0
10
12.94
20
0
10
12.96
20
0
10
12.98
20
0
10
13
20
0
10
13.02
20
0
10
13.040000000000001
20
0
10
13.06
20
0
10
13.08
20
0
10
13.1
20
0
10
13.120000000000001
20
0
10
13.14
20
0
10
13.16
20
0
10
13.18
20
0
10
13.200000000000001
20
0
10
13.22
20
0
10
13.24
20
0
10
13.26
20
0
10
13.280000000000001
20
0
10
13.3
20
0
10
13.32
20
0
10
13.34
20
0
10
13.36
20
0
10
13.38
20
0
10
13.4
20
0
10
13.42
20
0
10
13.44
20
0
10
13.46
20
0
10
13.48
20
0
10
13.5
20
0
10
13.52
20
0
10
13.540000000000001
20
0
10
13.56
20
0
10
13.58
20
0
10
13.6
20
0
10
13.620000000000001
20
0
10
13.64
20
0
10
13.66
20
0
10
13.68
20
0
10
13.700000000000001
20
0
10
13.72
20
0
10
13.74
20
0
10
13.76
20
0
10
13.780000000000001
20
0
10
13.8
20
0
10
13.82
20
0
10
13.84
20
0
10
13.86
20
0
10
13.88
20
0
10
13.9
20
0
10
13.92
20
0
10
13.94
20
0
10
13.96
20
0
10
13.98
20
0
10
14
20
0
10
14.02
20
0
10
14.040000000000001
20
0
10
14.06
20
0
10
14.08
20
0
10
14.1
20
0
10
14.120000000000001
20
0
10
14.14
20
0
10
14.16
20
0
10
14.18
20
0
10
14.200000000000001
20
0
10
14.22
20
0
10
14.24
20
0
10
14.26
20
0
10
14.280000000000001
20
0
10
14.3
20
0
10
14.32
20
0
10
14.34
20
0
10
14.36
20
0
10
14.38
20
0
10
14.4
20
0
10
14.42
20
0
10
14.44
20
0
10
14.46
20
0
10
14.48
20
0
10
14.5
20
0
10
14.52
20
0
10
14.540000000000001
20
0
10
14.56
20
0
10
14.58
20
0
10
14.6
20
0
10
14.620000000000001
20
0
10
14.64
20
0
10
14.66
20
0
10
14.68
20
0
10
14.700000000000001
20
0
10
14.72
20
0
10
14.74
20
0
10
14.76
20
0
10
14.780000000000001
20
0
10
14.8
20
0
10
14.82
20
0
10
14.84
20
0
10
14.86
20
0
10
14.88
20
0
10
14.9
20
0
10
14.92
20
0
10
14.94
20
0
10
14.96
20
0
10
14.98
20
0
10
15
20
0
10
15.02
20
0
10
15.040000000000001
20
0
10
15.06
20
0
10
15.08
20
0
10
15.1
20
0
10
15.120000000000001
20
0
10
15.14
20
0
10
15.16
20
0
10
15.18
20
0
10
15.200000000000001
20
0
10
15.22
20
0
10
15.24
20
0
10
15.26
20
0
10
15.280000000000001
20
0
10
15.3
20
0
10
15.32
20
0
10
15.34
20
0
10
15.36
20
0
10
15.38
20
0
10
15.4
20
0
10
15.42
20
0
10
15.44
20
0
10
15.46
20
0
10
15.48
20
0
10
15.5
20
0
10
15.52
20
0
10
15.540000000000001
20
0
10
15.56
20
0
10
15.58
20
0
10
15.6
20
0
10
15.620000000000001
20
0
10
15.64
20
0
10
15.66
20
0
10
15.68
20
0
10
15.700000000000001
20
0
10
15.72
20
0
10
15.74
20
0
10
15.76
20
0
10
15.780000000000001
20
0
10
15.8
20
0
10
15.82
20
0
10
15.84
20
0
10
15.860000000000001
20
0
10
15.88
20
0
10
15.9
20
0
10
15.92
20
0
10
15.94
20
0
10
15.96
20
0
10
15.98
20
0
10
16
20
0
10
16.02
20
0
10
16.04
20
0
10
16.06
20
0
10
16.080000000000002
20
0
10
16.1
20
0
10
16.12
20
0
10
16.14
20
0
10
16.16
20
0
10
16.18
20
0
10
16.2
20
0
10
16.22
20
0
10
16.240000000000002
20
0
10
16.26
20
0
10
16.28
20
0
10
16.3
20
0
10
16.32
20
0
10
16.34
20
0
10
16.36
20
0
10
16.38
20
0
10
16.4
20
0
10
16.42
20
0
10
16.44
20
0
10
16.46
20
0
10
16.48
20
0
10
16.5
20
0
10
16.52
20
0
10
16.54
20
0
10
16.56
20
0
10
16.580000000000002
20
0
10
16.6
20
0
10
16.62
20
0
10
16.64
20
0
10
16.66
20
0
10
16.68
20
0
10
16.7
20
0
10
16.72
20
0
10
16.740000000000002
20
0
10
16.76
20
0
10
16.78
20
0
10
16.8
20
0
10
16.82
20
0
10
16.84
20
0
10
16.86
20
0
10
16.88
20
0
10
16.9
20
0
10
16.92
20
0
10
16.94
20
0
10
16.96
20
0
10
16.98
20
0
10
17
20
0
10
17.02
20
0
10
17.04
20
0
10
17.06
20
0
10
17.080000000000002
20
0
10
17.1
20
0
10
17.12
20
0
10
17.14
20
0
10
17.16
20
0
10
17.18
20
0
10
17.2
20
0
10
17.22
20
0
10
17.240000000000002
20
0
10
17.26
20
0
10
17.28
20
0
10
17.3
20
0
10
17.32
20
0
10
17.34
20
0
10
17.36
20
0
10
17.38
20
0
10
17.400000000000002
20
0
10
17.42
20
0
10
17.44
20
0
10
17.46
20
0
10
17.48
20
0
10
17.5
20
0
10
17.52
20
0
10
17.54
20
0
10
17.56
20
0
10
17.580000000000002
20
0
10
17.6
20
0
10
17.62
20
0
10
17.64
20
0
10
17.66
20
0
10
17.68
20
0
10
17.7
20
0
10
17.72
20
0
10
17.740000000000002
20
0
10
17.76
20
0
10
17.78
20
0
10
17.8
20
0
10
17.82
20
0
10
17.84
20
0
10
17.86
20
0
10
17.88
20
0
10
17.900000000000002
20
0
10
17.92
20
0
10
17.94
20
0
10
17.96
20
0
10
17.98
20
0
10
18
20
0
10
18.02
20
0
10
18.04
20
0
10
18.06
20
0
10
18.080000000000002
20
0
10
18.1
20
0
10
18.12
20
0
10
18.14
20
0
10
18.16
20
0
10
18.18
20
0
10
18.2
20
0
10
18.22
20
0
10
18.240000000000002
20
0
10
18.26
20
0
10
18.28
20
0
10
18.3
20
0
10
18.32
20
0
10
18.34
20
0
10
18.36
20
0
10
18.38
20
0
10
18.400000000000002
20
0
10
18.42
20
0
10
18.44
20
0
10
18.46
20
0
10
18.48
20
0
10
18.5
20
0
10
18.52
20
0
10
18.54
20
0
10
18.56
20
0
10
18.580000000000002
20
0
10
18.6
20
0
10
18.62
20
0
10
18.64
20
0
10
18.66
20
0
10
18.68
20
0
10
18.7
20
0
10
18.72
20
0
10
18.740000000000002
20
0
10
18.76
20
0
10
18.78
20
0
10
18.8
20
0
10
18.82
20
0
10
18.84
20
0
10
18.86
20
0
10
18.88
20
0
10
18.900000000000002
20
0
10
18.92
20
0
10
18.94
20
0
10
18.96
20
0
10
18.98
20
0
10
19
20
0
10
19.02
20
0
10
19.04
20
0
10
19.06
20
0
10
19.080000000000002
20
0
10
19.1
20
0
10
19.12
20
0
10
19.14
20
0
10
19.16
20
0
10
19.18
20
0
10
19.2
20
0
10
19.22
20
0
10
19.240000000000002
20
0
10
19.26
20
0
10
19.28
20
0
10
19.3
20
0
10
19.32
20
0
10
19.34
20
0
10
19.36
20
0
10
19.38
20
0
10
19.400000000000002
20
0
10
19.42
20
0
10
19.44
20
0
10
19.46
20
0
10
19.48
20
0
10
19.5
20
0
10
19.52
20
0
10
19.54
20
0
10
19.56
20
0
10
19.580000000000002
20
0
10
19.6
20
0
10
19.62
20
0
10
19.64
20
0
10
19.66
20
0
10
19.68
20
0
10
19.7
20
0
10
19.72
20
0
10
19.740000000000002
20
0
10
19.76
20
0
10
19.78
20
0
10
19.8
20
0
10
19.82
20
0
10
19.84
20
0
10
19.86
20
0
10
19.88
20
0
10
19.900000000000002
20
0
10
19.92
20
0
10
19.94
20
0
10
19.96
20
0
10
19.98
20
0
10
20
20
0
10
20
20
20
10
0
20
20
0
ENDSEC
0
EOF
