0
SECTION
2
HEADER
9
$ACADVER
1
AC1009
9
$INSUNITS
70
4
9
$EXTMIN
10
0
20
0
30
0
9
$EXTMAX
10
120
20
40
30
0
0
ENDSEC
0
SECTION
2
TABLES
0
TABLE
2
LAYER
70
1
0
LAYER
2
CORTE
70
0
62
1
6
CONTINUOUS
0
ENDTAB
0
ENDSEC
0
SECTION
2
ENTITIES
0
LINE
8
CORTE
62
1
10
10
20
10
30
0
11
110
21
10
31
0
0
LINE
8
CORTE
62
1
10
10
20
30
30
0
11
110
21
30
31
0
0
LINE
8
CORTE
62
1
10
10
20
10
30
0
11
10
21
30
31
0
0
LINE
8
CORTE
62
1
10
20
20
10
30
0
11
20
21
30
31
0
0
LINE
8
CORTE
62
1
10
30
20
10
30
0
11
30
21
30
31
0
0
LINE
8
CORTE
62
1
10
40
20
10
30
0
11
40
21
30
31
0
0
LINE
8
CORTE
62
1
10
50
20
10
30
0
11
50
21
30
31
0
0
LINE
8
CORTE
62
1
10
60
20
10
30
0
11
60
21
30
31
0
0
LINE
8
CORTE
62
1
10
70
20
10
30
0
11
70
21
30
31
0
0
LINE
8
CORTE
62
1
10
80
20
10
30
0
11
80
21
30
31
0
0
LINE
8
CORTE
62
1
10
90
20
10
30
0
11
90
21
30
31
0
0
LINE
8
CORTE
62
1
10
100
20
10
30
0
11
100
21
30
31
0
0
LINE
8
CORTE
62
1
10
110
20
10
30
0
11
110
21
30
31
0
0
LINE
8
CORTE
62
1
10
0
20
0
30
0
11
120
21
0
31
0
0
LINE
8
CORTE
62
1
10
120
20
0
30
0
11
120
21
40
31
0
0
LINE
8
CORTE
62
1
10
120
20
40
30
0
11
0
21
40
31
0
0
LINE
8
CORTE
62
1
10
0
20
40
30
0
11
0
21
0
31
0
0
ENDSEC
0
EOF
